<svg width="19" height="20" viewBox="0 0 19 20" fill="none" xmlns="http://www.w3.org/2000/svg">
<path fill-rule="evenodd" clip-rule="evenodd" d="M6.24816 3.56989C6.31482 3.10447 6.45704 2.84777 6.65854 2.67506C6.99386 2.38764 7.71832 2.12969 9.35537 2.12969C10.9924 2.12969 11.7169 2.38764 12.0522 2.67506C12.254 2.84804 12.3964 3.10528 12.4629 3.57209C11.5567 3.46913 10.524 3.42969 9.35537 3.42969C8.18537 3.42969 7.15312 3.46925 6.24816 3.56989ZM4.51426 3.88286C4.5582 2.95733 4.78208 2.04442 5.5522 1.38432C6.38355 0.671731 7.65909 0.429688 9.35537 0.429688C11.0516 0.429688 12.3272 0.671731 13.1585 1.38432C13.9317 2.04699 14.1543 2.96442 14.197 3.89364C15.0826 4.14061 15.833 4.51388 16.4358 5.07739C17.6168 6.18127 18.0432 7.83912 18.1645 10.0186C18.191 10.1009 18.2054 10.1886 18.2054 10.2797C18.2054 10.4373 18.2022 10.5965 18.1941 10.7563C18.202 11.059 18.2054 11.3707 18.2054 11.6915C18.2054 14.1263 17.8875 16.1243 16.4217 17.4338C14.9946 18.7087 12.6928 19.1297 9.35537 19.1297C7.67055 19.1297 6.27138 19.0476 5.12661 18.8193C3.97759 18.5902 3.02559 18.2023 2.29005 17.5473C0.810625 16.2296 0.505371 14.1019 0.505371 11.2797C0.505371 11.0595 0.507229 10.8436 0.511357 10.6319C0.50711 10.5139 0.505371 10.3964 0.505371 10.2797C0.505371 10.2128 0.513104 10.1477 0.527724 10.0852C0.619913 7.85183 1.02721 6.13684 2.29005 5.01212C2.89066 4.47721 3.63558 4.12051 4.51426 3.88286ZM2.21237 10.6207C2.26631 8.19892 2.63505 6.98134 3.4207 6.28163C3.85181 5.89766 4.48315 5.60187 5.45913 5.40721C6.43936 5.21171 7.70685 5.12969 9.35537 5.12969C11.0046 5.12969 12.2696 5.21185 13.2468 5.41267C14.2177 5.61219 14.8446 5.91704 15.2749 6.31931C16.0471 7.04105 16.42 8.29487 16.4922 10.7387C16.469 11.105 16.414 11.401 16.3167 11.6492C16.1923 11.9664 15.9835 12.2455 15.5816 12.4949C14.6988 13.0427 12.9246 13.4297 9.36141 13.4297C5.7986 13.4297 4.0206 13.0428 3.13432 12.4944C2.7304 12.2444 2.52038 11.9648 2.39533 11.6476C2.28732 11.3737 2.23089 11.0414 2.21237 10.6207ZM16.338 14.0226C16.1567 15.022 15.8201 15.6916 15.2891 16.166C14.3828 16.9757 12.6847 17.4297 9.35537 17.4297C7.70685 17.4297 6.43936 17.3477 5.45913 17.1522C4.48315 16.9575 3.85181 16.6617 3.4207 16.2778C2.90307 15.8167 2.56642 15.1309 2.38154 14.0241C3.73108 14.7913 5.92377 15.1297 9.36141 15.1297C12.8001 15.1297 14.9911 14.7911 16.338 14.0226ZM6.50537 11.2797C6.50537 10.8102 6.88593 10.4297 7.35537 10.4297H11.3554C11.8248 10.4297 12.2054 10.8102 12.2054 11.2797C12.2054 11.7491 11.8248 12.1297 11.3554 12.1297L7.35537 12.1297C6.88593 12.1297 6.50537 11.7491 6.50537 11.2797Z" fill="#6D61F2"/>
</svg>
