<svg width="21" height="19" viewBox="0 0 21 19" fill="none" xmlns="http://www.w3.org/2000/svg">
<path fill-rule="evenodd" clip-rule="evenodd" d="M16.2054 4.05746C16.2054 3.48839 16.2061 3.07869 16.2335 2.75853C16.2615 2.43153 16.3108 2.31158 16.3342 2.27256C16.3403 2.2625 16.3427 2.26076 16.3458 2.25846L16.3463 2.2581C16.3528 2.25335 16.3802 2.23488 16.4498 2.21341C16.6057 2.1653 16.8766 2.12969 17.3554 2.12969C17.8341 2.12969 18.1051 2.1653 18.261 2.21341C18.3305 2.23488 18.358 2.25335 18.3644 2.2581L18.3649 2.25846C18.3681 2.26076 18.3705 2.2625 18.3765 2.27256C18.3999 2.31158 18.4492 2.43153 18.4772 2.75853C18.5047 3.07869 18.5054 3.48839 18.5054 4.05746V4.07053V4.08368V4.09692V4.11024V4.12364V4.13713V4.15071V4.16437V4.17811V4.19194V4.20585V4.21984V4.23392V4.24808V4.26231V4.27664V4.29104V4.30552V4.32008V4.33472V4.34945V4.36425V4.37913V4.39409V4.40913V4.42424V4.43944V4.45471V4.47006V4.48548V4.50098V4.51656V4.53221V4.54794V4.56374V4.57962V4.59557V4.6116V4.6277V4.64387V4.66011V4.67643V4.69282V4.70929V4.72582V4.74242V4.7591V4.77585V4.79267V4.80955V4.82651V4.84354V4.86063V4.87779V4.89503V4.91232V4.92969V4.94713V4.96463V4.98219V4.99983V5.01753V5.03529V5.05312V5.07102V5.08898V5.107V5.12509V5.14324V5.16146V5.17973V5.19807V5.21648V5.23494V5.25347V5.27205V5.2907V5.30941V5.32817V5.347V5.36589V5.38483V5.40384V5.4229V5.44202V5.4612V5.48044V5.49973V5.51908V5.53849V5.55795V5.57747V5.59705V5.61668V5.63636V5.6561V5.67589V5.69574V5.71563V5.73559V5.75559V5.77565V5.79576V5.81592V5.83613V5.8564V5.87671V5.89707V5.91749V5.93795V5.95847V5.97903V5.99964V6.0203V6.04101V6.06176V6.08256V6.10341V6.12431V6.14525V6.16624V6.18727V6.20835V6.22947V6.25064V6.27185V6.29311V6.31441V6.33575V6.35714V6.37857V6.40004V6.42155V6.4431V6.4647V6.48634V6.50801V6.52973V6.55149V6.57328V6.59512V6.61699V6.63891V6.66086V6.68285V6.70487V6.72694V6.74904V6.77117V6.79335V6.81556V6.8378V6.86008V6.88239V6.90474V6.92713V6.94954V6.97199V6.99448V7.01699V7.03954V7.06212V7.08473V7.10738V7.13005V7.15276V7.17549V7.19826V7.22105V7.24388V7.26673V7.28961V7.31253V7.33546V7.35843V7.38143V7.40445V7.42749V7.45057V7.47367V7.49679V7.51995V7.54312V7.56632V7.58955V7.6128V7.63607V7.65937V7.68269V7.70603V7.72939V7.75278V7.77618V7.79961V7.82306V7.84653V7.87002V7.89353V7.91706V7.94061V7.96418V7.98777V8.01137V8.035V8.05864V8.0823V8.10597V8.12966V8.15337V8.17709V8.20083V8.22459V8.24835V8.27214V8.29594V8.31975V8.34357V8.36741V8.39126V8.41513V8.439V8.46289V8.48679V8.5107V8.53462V8.55855V8.58249V8.60644V8.6304V8.65437V8.67835V8.70234V8.72634V8.75034V8.77435V8.79837V8.82239V8.84642V8.87046V8.8945V8.91855V8.9426V8.96666V8.99072V9.01479V9.03886V9.06293V9.08701V9.11109V9.13517V9.15925V9.18334V9.20742V9.23151V9.2556V9.27969V9.30377V9.32786V9.35195V9.37604V9.40012V9.42421V9.44829V9.47237V9.49644V9.52052V9.54459V9.56865V9.59271V9.61677V9.64083V9.66487V9.68892V9.71295V9.73698V9.76101V9.78502V9.80903V9.83304V9.85703V9.88102V9.905V9.92897V9.95293V9.97688V10.0008V10.0248V10.0487V10.0726V10.0965V10.1204V10.1442V10.1681V10.192V10.2158V10.2396V10.2634V10.2872V10.311V10.3348V10.3585V10.3823V10.406V10.4297V10.4534V10.4771V10.5007V10.5244V10.548V10.5716V10.5952V10.6188V10.6423V10.6658V10.6893V10.7128V10.7363V10.7598V10.7832V10.8066V10.83V10.8533V10.8767V10.9V10.9233V10.9466V10.9698V10.993V11.0163V11.0394V11.0626V11.0857V11.1088V11.1319V11.1549V11.1779V11.2009V11.2239V11.2468V11.2698V11.2926V11.3155V11.3383V11.3611V11.3839V11.4066V11.4293V11.452V11.4746V11.4973V11.5198V11.5424V11.5649V11.5874V11.6098V11.6322V11.6546V11.677V11.6993V11.7216V11.7438V11.766V11.7882V11.8103V11.8324V11.8545V11.8765V11.8985V11.9205V11.9424V11.9643V11.9861V12.0079V12.0296V12.0514V12.073V12.0947V12.1163V12.1378V12.1593V12.1808V12.2022V12.2236V12.245V12.2663V12.2875V12.3087V12.3299V12.351V12.3721V12.3931V12.4141V12.4351V12.456V12.4768V12.4976V12.5184V12.5391V12.5597V12.5803V12.6009V12.6214V12.6419V12.6623V12.6827V12.703V12.7232V12.7435V12.7636V12.7837V12.8038V12.8238V12.8437V12.8636V12.8835V12.9033V12.923V12.9427V12.9623V12.9819V13.0014V13.0209V13.0403V13.0596V13.0789V13.0982V13.1173V13.1365V13.1555V13.1745V13.1935V13.2124V13.2312V13.25V13.2687V13.2873V13.3059V13.3244V13.3429V13.3613V13.3796V13.3979V13.4161V13.4343V13.4524V13.4704V13.4884V13.5062V13.5241V13.5418V13.5595V13.5772V13.5947V13.6122V13.6297V13.647V13.6643V13.6816V13.6987V13.7158V13.7329V13.7498V13.7667V13.7835V13.8003V13.8169V13.8336V13.8501V13.8666V13.8829V13.8993V13.9155V13.9317V13.9478V13.9638V13.9798V13.9956V14.0114V14.0272V14.0428V14.0584V14.0739V14.0893V14.1047V14.1199V14.1351V14.1502V14.1653V14.1802V14.1951V14.2099V14.2246V14.2393V14.2539V14.2683V14.2827V14.2971V14.3113V14.3255V14.3395V14.3535V14.3674V14.3813V14.395V14.4087V14.4222V14.4357V14.4491V14.4625V14.4757V14.4888V14.5019C18.5054 15.1741 18.4672 15.6294 18.4043 15.9383C18.3412 16.2486 18.2676 16.3362 18.2551 16.3495C18.2506 16.3543 18.2466 16.3581 18.2335 16.3642C18.2166 16.3722 18.1794 16.3861 18.1069 16.3986C17.9413 16.4271 17.724 16.4297 17.3554 16.4297C16.981 16.4297 16.761 16.4271 16.5941 16.3985C16.5211 16.386 16.4844 16.3721 16.4683 16.3645C16.4563 16.3588 16.4534 16.3558 16.4499 16.3521C16.4389 16.3403 16.3662 16.2539 16.3041 15.9417C16.2423 15.6317 16.2054 15.1753 16.2054 14.5019V4.05746ZM17.3554 0.429688C16.3891 0.429688 15.3962 0.531829 14.8765 1.39792C14.6499 1.77558 14.5742 2.21118 14.5397 2.61335C14.5053 3.01445 14.5054 3.4964 14.5054 4.0261V4.02611V4.05746V14.5019C14.5054 15.2174 14.543 15.8027 14.6368 16.2739C14.7303 16.743 14.8943 17.1774 15.2079 17.5128C15.5371 17.8652 15.9388 18.011 16.307 18.0741C16.6329 18.1299 16.9968 18.1298 17.315 18.1297L17.3554 18.1297L17.395 18.1297C17.7086 18.1298 18.07 18.1299 18.3951 18.074C18.7622 18.0108 19.1627 17.8652 19.4923 17.5154C19.807 17.1815 19.9743 16.7482 20.0702 16.2773C20.1663 15.805 20.2054 15.2187 20.2054 14.5019V14.4888V14.4757V14.4625V14.4491V14.4357V14.4222V14.4087V14.395V14.3813V14.3674V14.3535V14.3395V14.3255V14.3113V14.2971V14.2827V14.2683V14.2539V14.2393V14.2246V14.2099V14.1951V14.1802V14.1653V14.1502V14.1351V14.1199V14.1047V14.0893V14.0739V14.0584V14.0428V14.0272V14.0114V13.9956V13.9798V13.9638V13.9478V13.9317V13.9155V13.8993V13.8829V13.8666V13.8501V13.8336V13.8169V13.8003V13.7835V13.7667V13.7498V13.7329V13.7158V13.6987V13.6816V13.6643V13.647V13.6297V13.6122V13.5947V13.5772V13.5595V13.5418V13.5241V13.5062V13.4884V13.4704V13.4524V13.4343V13.4161V13.3979V13.3796V13.3613V13.3429V13.3244V13.3059V13.2873V13.2687V13.25V13.2312V13.2124V13.1935V13.1745V13.1555V13.1365V13.1173V13.0982V13.0789V13.0596V13.0403V13.0209V13.0014V12.9819V12.9623V12.9427V12.923V12.9033V12.8835V12.8636V12.8437V12.8238V12.8038V12.7837V12.7636V12.7435V12.7232V12.703V12.6827V12.6623V12.6419V12.6214V12.6009V12.5803V12.5597V12.5391V12.5184V12.4976V12.4768V12.456V12.4351V12.4141V12.3931V12.3721V12.351V12.3299V12.3087V12.2875V12.2663V12.245V12.2236V12.2022V12.1808V12.1593V12.1378V12.1163V12.0947V12.073V12.0514V12.0296V12.0079V11.9861V11.9643V11.9424V11.9205V11.8985V11.8765V11.8545V11.8324V11.8103V11.7882V11.766V11.7438V11.7216V11.6993V11.677V11.6546V11.6322V11.6098V11.5874V11.5649V11.5424V11.5198V11.4973V11.4746V11.452V11.4293V11.4066V11.3839V11.3611V11.3383V11.3155V11.2926V11.2698V11.2468V11.2239V11.2009V11.1779V11.1549V11.1319V11.1088V11.0857V11.0626V11.0394V11.0163V10.993V10.9698V10.9466V10.9233V10.9V10.8767V10.8533V10.83V10.8066V10.7832V10.7598V10.7363V10.7128V10.6893V10.6658V10.6423V10.6188V10.5952V10.5716V10.548V10.5244V10.5007V10.4771V10.4534V10.4297V10.406V10.3823V10.3585V10.3348V10.311V10.2872V10.2634V10.2396V10.2158V10.192V10.1681V10.1442V10.1204V10.0965V10.0726V10.0487V10.0248V10.0008V9.97688V9.95293V9.92897V9.905V9.88102V9.85703V9.83304V9.80903V9.78502V9.76101V9.73698V9.71295V9.68892V9.66487V9.64083V9.61677V9.59271V9.56865V9.54459V9.52052V9.49644V9.47237V9.44829V9.42421V9.40012V9.37604V9.35195V9.32786V9.30377V9.27969V9.2556V9.23151V9.20742V9.18334V9.15925V9.13517V9.11109V9.08701V9.06293V9.03886V9.01479V8.99072V8.96666V8.9426V8.91855V8.8945V8.87046V8.84642V8.82239V8.79837V8.77435V8.75034V8.72634V8.70234V8.67835V8.65437V8.6304V8.60644V8.58249V8.55855V8.53462V8.5107V8.48679V8.46289V8.439V8.41513V8.39126V8.36741V8.34357V8.31975V8.29594V8.27214V8.24835V8.22459V8.20083V8.17709V8.15337V8.12966V8.10597V8.0823V8.05864V8.035V8.01137V7.98777V7.96418V7.94061V7.91706V7.89353V7.87002V7.84653V7.82306V7.79961V7.77618V7.75278V7.72939V7.70603V7.68269V7.65937V7.63607V7.6128V7.58955V7.56632V7.54312V7.51995V7.49679V7.47367V7.45057V7.42749V7.40445V7.38143V7.35843V7.33546V7.31253V7.28961V7.26673V7.24388V7.22105V7.19826V7.17549V7.15276V7.13005V7.10738V7.08473V7.06212V7.03954V7.01699V6.99448V6.97199V6.94954V6.92713V6.90474V6.88239V6.86008V6.8378V6.81556V6.79335V6.77117V6.74904V6.72694V6.70487V6.68285V6.66086V6.63891V6.61699V6.59512V6.57328V6.55149V6.52973V6.50801V6.48634V6.4647V6.4431V6.42155V6.40004V6.37857V6.35714V6.33575V6.31441V6.29311V6.27185V6.25064V6.22947V6.20835V6.18727V6.16624V6.14525V6.12431V6.10341V6.08256V6.06176V6.04101V6.0203V5.99964V5.97903V5.95847V5.93795V5.91749V5.89707V5.87671V5.8564V5.83613V5.81592V5.79576V5.77565V5.75559V5.73559V5.71563V5.69574V5.67589V5.6561V5.63636V5.61668V5.59705V5.57747V5.55795V5.53849V5.51908V5.49973V5.48044V5.4612V5.44202V5.4229V5.40384V5.38483V5.36589V5.347V5.32817V5.30941V5.2907V5.27205V5.25347V5.23494V5.21648V5.19807V5.17973V5.16146V5.14324V5.12509V5.107V5.08898V5.07102V5.05312V5.03529V5.01753V4.99983V4.98219V4.96463V4.94713V4.92969V4.91232V4.89503V4.87779V4.86063V4.84354V4.82651V4.80955V4.79267V4.77585V4.7591V4.74242V4.72582V4.70929V4.69282V4.67643V4.66011V4.64387V4.6277V4.6116V4.59557V4.57962V4.56374V4.54794V4.53221V4.51656V4.50098V4.48548V4.47006V4.45471V4.43944V4.42424V4.40913V4.39409V4.37913V4.36425V4.34945V4.33472V4.32008V4.30552V4.29104V4.27664V4.26231V4.24808V4.23392V4.21984V4.20585V4.19194V4.17811V4.16437V4.15071V4.13713V4.12364V4.11024V4.09692V4.08368V4.07053V4.05746L20.2054 4.0261C20.2054 3.4964 20.2054 3.01445 20.171 2.61335C20.1365 2.21118 20.0608 1.77558 19.8342 1.39792C19.3146 0.531829 18.3217 0.429688 17.3554 0.429688ZM9.23436 6.77965C9.20936 7.00508 9.20835 7.26758 9.20835 7.61302L9.20835 11.2797L9.20836 14.9464C9.20836 14.9545 9.20824 14.9627 9.20801 14.9708C9.18323 15.8304 9.33968 16.1209 9.43265 16.2205C9.51301 16.3066 9.71496 16.4297 10.3551 16.4297C10.9809 16.4297 11.1891 16.3081 11.2747 16.2173C11.3698 16.1165 11.5296 15.8254 11.5023 14.9736C11.502 14.9645 11.5018 14.9554 11.5018 14.9464V11.2797L11.5018 7.61302C11.5018 7.26758 11.5008 7.00508 11.4758 6.77965C11.4512 6.55747 11.4094 6.44379 11.3731 6.38315L11.3718 6.38109C11.3484 6.34137 11.2236 6.12969 10.3551 6.12969C9.4866 6.12969 9.36177 6.34137 9.33834 6.38109L9.33712 6.38315C9.30079 6.44379 9.25901 6.55747 9.23436 6.77965ZM7.87875 5.50956C8.35773 4.70996 9.24318 4.42969 10.3551 4.42969C11.467 4.42969 12.3525 4.70996 12.8314 5.50956C13.0447 5.86558 13.1277 6.2519 13.1655 6.59223C13.2019 6.92068 13.2019 7.27328 13.2018 7.58831L13.2018 7.61302L13.2018 11.2797V14.9331C13.2315 15.9089 13.0816 16.7791 12.5114 17.3837C11.9289 18.0013 11.1093 18.1297 10.3551 18.1297C9.59354 18.1297 8.7707 18.0028 8.1899 17.3805C7.62416 16.7744 7.48187 15.9032 7.50836 14.9344L7.50835 11.2797L7.50835 7.61302L7.50835 7.58831C7.50832 7.27328 7.50829 6.92067 7.54473 6.59223C7.58248 6.2519 7.66549 5.86558 7.87875 5.50956ZM2.23246 11.7993C2.20624 12.0631 2.20537 12.3815 2.20537 12.8075V15.574C2.20537 16.0545 2.32155 16.186 2.37786 16.2336C2.46947 16.3111 2.71742 16.4297 3.35537 16.4297C3.97907 16.4297 4.23082 16.3124 4.32742 16.2314C4.38822 16.1804 4.50537 16.0462 4.50537 15.574V15.5669V15.5598V15.5527V15.5456V15.5386V15.5315V15.5245V15.5175V15.5105V15.5035V15.4965V15.4896V15.4826V15.4757V15.4688V15.4619V15.455V15.4481V15.4413V15.4344V15.4276V15.4208V15.414V15.4072V15.4004V15.3936V15.3869V15.3801V15.3734V15.3667V15.36V15.3533V15.3466V15.34V15.3333V15.3267V15.3201V15.3135V15.3069V15.3003V15.2937V15.2872V15.2806V15.2741V15.2676V15.2611V15.2546V15.2481V15.2416V15.2352V15.2287V15.2223V15.2159V15.2095V15.2031V15.1967V15.1903V15.184V15.1776V15.1713V15.165V15.1586V15.1523V15.1461V15.1398V15.1335V15.1273V15.121V15.1148V15.1086V15.1024V15.0962V15.09V15.0838V15.0776V15.0715V15.0653V15.0592V15.0531V15.047V15.0409V15.0348V15.0287V15.0227V15.0166V15.0106V15.0045V14.9985V14.9925V14.9865V14.9805V14.9745V14.9686V14.9626V14.9566V14.9507V14.9448V14.9389V14.9329V14.927V14.9212V14.9153V14.9094V14.9035V14.8977V14.8919V14.886V14.8802V14.8744V14.8686V14.8628V14.857V14.8512V14.8455V14.8397V14.834V14.8282V14.8225V14.8168V14.8111V14.8054V14.7997V14.794V14.7883V14.7827V14.777V14.7714V14.7657V14.7601V14.7545V14.7489V14.7433V14.7377V14.7321V14.7265V14.7209V14.7154V14.7098V14.7043V14.6987V14.6932V14.6877V14.6822V14.6767V14.6712V14.6657V14.6602V14.6547V14.6493V14.6438V14.6384V14.6329V14.6275V14.6221V14.6166V14.6112V14.6058V14.6004V14.595V14.5896V14.5843V14.5789V14.5735V14.5682V14.5628V14.5575V14.5522V14.5468V14.5415V14.5362V14.5309V14.5256V14.5203V14.515V14.5097V14.5045V14.4992V14.4939V14.4887V14.4834V14.4782V14.4729V14.4677V14.4625V14.4573V14.4521V14.4469V14.4417V14.4365V14.4313V14.4261V14.4209V14.4158V14.4106V14.4054V14.4003V14.3951V14.39V14.3849V14.3797V14.3746V14.3695V14.3644V14.3592V14.3541V14.349V14.3439V14.3389V14.3338V14.3287V14.3236V14.3185V14.3135V14.3084V14.3034V14.2983V14.2933V14.2882V14.2832V14.2782V14.2731V14.2681V14.2631V14.2581V14.2531V14.2481V14.243V14.2381V14.2331V14.2281V14.2231V14.2181V14.2131V14.2081V14.2032V14.1982V14.1932V14.1883V14.1833V14.1784V14.1734V14.1685V14.1635V14.1586V14.1537V14.1487V14.1438V14.1389V14.1339V14.129V14.1241V14.1192V14.1143V14.1094V14.1045V14.0996V14.0947V14.0898V14.0849V14.08V14.0751V14.0702V14.0653V14.0605V14.0556V14.0507V14.0458V14.041V14.0361V14.0312V14.0264V14.0215V14.0166V14.0118V14.0069V14.0021V13.9972V13.9924V13.9875V13.9827V13.9778V13.973V13.9681V13.9633V13.9584V13.9536V13.9488V13.9439V13.9391V13.9343V13.9294V13.9246V13.9198V13.9149V13.9101V13.9053V13.9005V13.8956V13.8908V13.886V13.8812V13.8763V13.8715V13.8667V13.8619V13.8571V13.8522V13.8474V13.8426V13.8378V13.833V13.8282V13.8233V13.8185V13.8137V13.8089V13.8041V13.7993V13.7944V13.7896V13.7848V13.78V13.7752V13.7703V13.7655V13.7607V13.7559V13.7511V13.7463V13.7414V13.7366V13.7318V13.727V13.7221V13.7173V13.7125V13.7077V13.7028V13.698V13.6932V13.6884V13.6835V13.6787V13.6739V13.669V13.6642V13.6594V13.6545V13.6497V13.6448V13.64V13.6351V13.6303V13.6254V13.6206V13.6157V13.6109V13.606V13.6012V13.5963V13.5915V13.5866V13.5817V13.5769V13.572V13.5671V13.5622V13.5574V13.5525V13.5476V13.5427V13.5378V13.533V13.5281V13.5232V13.5183V13.5134V13.5085V13.5036V13.4987V13.4937V13.4888V13.4839V13.479V13.4741V13.4691V13.4642V13.4593V13.4543V13.4494V13.4445V13.4395V13.4346V13.4296V13.4247V13.4197V13.4147V13.4098V13.4048V13.3998V13.3948V13.3899V13.3849V13.3799V13.3749V13.3699V13.3649V13.3599V13.3549V13.3498V13.3448V13.3398V13.3348V13.3297V13.3247V13.3197V13.3146V13.3096V13.3045V13.2994V13.2944V13.2893V13.2842V13.2791V13.2741V13.269V13.2639V13.2588V13.2537V13.2486V13.2434V13.2383V13.2332V13.2281V13.2229V13.2178V13.2126V13.2075V13.2023V13.1972V13.192V13.1868V13.1816V13.1764V13.1712V13.166V13.1608V13.1556V13.1504V13.1452V13.14V13.1347V13.1295V13.1242V13.119V13.1137V13.1084V13.1032V13.0979V13.0926V13.0873V13.082V13.0767V13.0714V13.0661V13.0607V13.0554V13.0501V13.0447V13.0394V13.034V13.0286V13.0232V13.0179V13.0125V13.0071V13.0017V12.9963V12.9908V12.9854V12.98V12.9745V12.9691V12.9636V12.9581V12.9527V12.9472V12.9417V12.9362V12.9307V12.9252V12.9197V12.9141V12.9086V12.903V12.8975V12.8919V12.8864V12.8808V12.8752V12.8696V12.864V12.8584V12.8528V12.8471V12.8415V12.8358V12.8302V12.8245V12.8226L4.49845 12.6203V12.6203C4.4874 12.2911 4.47875 12.0337 4.45419 11.8066C4.42471 11.534 4.3803 11.4069 4.34496 11.3449L4.34429 11.3435C4.33528 11.3234 4.2487 11.1297 3.35537 11.1297C2.45813 11.1297 2.35365 11.3255 2.33927 11.3525L2.33817 11.3545C2.30369 11.4131 2.25862 11.536 2.23246 11.7993ZM0.872569 10.4931C1.36283 9.65896 2.28057 9.42969 3.35537 9.42969C4.43214 9.42969 5.34112 9.66031 5.8216 10.5026C6.0289 10.866 6.1058 11.2675 6.14434 11.6238C6.17636 11.9199 6.18742 12.2549 6.1983 12.5843C6.20043 12.6489 6.20256 12.7133 6.20483 12.7772L6.20512 12.7869L6.20537 12.8075V12.8132V12.8188V12.8245V12.8302V12.8358V12.8415V12.8471V12.8528V12.8584V12.864V12.8696V12.8752V12.8808V12.8864V12.8919V12.8975V12.903V12.9086V12.9141V12.9197V12.9252V12.9307V12.9362V12.9417V12.9472V12.9527V12.9581V12.9636V12.9691V12.9745V12.98V12.9854V12.9908V12.9963V13.0017V13.0071V13.0125V13.0179V13.0232V13.0286V13.034V13.0394V13.0447V13.0501V13.0554V13.0607V13.0661V13.0714V13.0767V13.082V13.0873V13.0926V13.0979V13.1032V13.1084V13.1137V13.119V13.1242V13.1295V13.1347V13.14V13.1452V13.1504V13.1556V13.1608V13.166V13.1712V13.1764V13.1816V13.1868V13.192V13.1972V13.2023V13.2075V13.2126V13.2178V13.2229V13.2281V13.2332V13.2383V13.2434V13.2486V13.2537V13.2588V13.2639V13.269V13.2741V13.2791V13.2842V13.2893V13.2944V13.2994V13.3045V13.3096V13.3146V13.3197V13.3247V13.3297V13.3348V13.3398V13.3448V13.3498V13.3549V13.3599V13.3649V13.3699V13.3749V13.3799V13.3849V13.3899V13.3948V13.3998V13.4048V13.4098V13.4147V13.4197V13.4247V13.4296V13.4346V13.4395V13.4445V13.4494V13.4543V13.4593V13.4642V13.4691V13.4741V13.479V13.4839V13.4888V13.4937V13.4987V13.5036V13.5085V13.5134V13.5183V13.5232V13.5281V13.533V13.5378V13.5427V13.5476V13.5525V13.5574V13.5622V13.5671V13.572V13.5769V13.5817V13.5866V13.5915V13.5963V13.6012V13.606V13.6109V13.6157V13.6206V13.6254V13.6303V13.6351V13.64V13.6448V13.6497V13.6545V13.6594V13.6642V13.669V13.6739V13.6787V13.6835V13.6884V13.6932V13.698V13.7028V13.7077V13.7125V13.7173V13.7221V13.727V13.7318V13.7366V13.7414V13.7463V13.7511V13.7559V13.7607V13.7655V13.7703V13.7752V13.78V13.7848V13.7896V13.7944V13.7993V13.8041V13.8089V13.8137V13.8185V13.8233V13.8282V13.833V13.8378V13.8426V13.8474V13.8522V13.8571V13.8619V13.8667V13.8715V13.8763V13.8812V13.886V13.8908V13.8956V13.9005V13.9053V13.9101V13.9149V13.9198V13.9246V13.9294V13.9343V13.9391V13.9439V13.9488V13.9536V13.9584V13.9633V13.9681V13.973V13.9778V13.9827V13.9875V13.9924V13.9972V14.0021V14.0069V14.0118V14.0166V14.0215V14.0264V14.0312V14.0361V14.041V14.0458V14.0507V14.0556V14.0605V14.0653V14.0702V14.0751V14.08V14.0849V14.0898V14.0947V14.0996V14.1045V14.1094V14.1143V14.1192V14.1241V14.129V14.1339V14.1389V14.1438V14.1487V14.1537V14.1586V14.1635V14.1685V14.1734V14.1784V14.1833V14.1883V14.1932V14.1982V14.2032V14.2081V14.2131V14.2181V14.2231V14.2281V14.2331V14.2381V14.243V14.2481V14.2531V14.2581V14.2631V14.2681V14.2731V14.2782V14.2832V14.2882V14.2933V14.2983V14.3034V14.3084V14.3135V14.3185V14.3236V14.3287V14.3338V14.3389V14.3439V14.349V14.3541V14.3592V14.3644V14.3695V14.3746V14.3797V14.3849V14.39V14.3951V14.4003V14.4054V14.4106V14.4158V14.4209V14.4261V14.4313V14.4365V14.4417V14.4469V14.4521V14.4573V14.4625V14.4677V14.4729V14.4782V14.4834V14.4887V14.4939V14.4992V14.5045V14.5097V14.515V14.5203V14.5256V14.5309V14.5362V14.5415V14.5468V14.5522V14.5575V14.5628V14.5682V14.5735V14.5789V14.5843V14.5896V14.595V14.6004V14.6058V14.6112V14.6166V14.6221V14.6275V14.6329V14.6384V14.6438V14.6493V14.6547V14.6602V14.6657V14.6712V14.6767V14.6822V14.6877V14.6932V14.6987V14.7043V14.7098V14.7154V14.7209V14.7265V14.7321V14.7377V14.7433V14.7489V14.7545V14.7601V14.7657V14.7714V14.777V14.7827V14.7883V14.794V14.7997V14.8054V14.8111V14.8168V14.8225V14.8282V14.834V14.8397V14.8455V14.8512V14.857V14.8628V14.8686V14.8744V14.8802V14.886V14.8919V14.8977V14.9035V14.9094V14.9153V14.9212V14.927V14.9329V14.9389V14.9448V14.9507V14.9566V14.9626V14.9686V14.9745V14.9805V14.9865V14.9925V14.9985V15.0045V15.0106V15.0166V15.0227V15.0287V15.0348V15.0409V15.047V15.0531V15.0592V15.0653V15.0715V15.0776V15.0838V15.09V15.0962V15.1024V15.1086V15.1148V15.121V15.1273V15.1335V15.1398V15.1461V15.1523V15.1586V15.165V15.1713V15.1776V15.184V15.1903V15.1967V15.2031V15.2095V15.2159V15.2223V15.2287V15.2352V15.2416V15.2481V15.2546V15.2611V15.2676V15.2741V15.2806V15.2872V15.2937V15.3003V15.3069V15.3135V15.3201V15.3267V15.3333V15.34V15.3466V15.3533V15.36V15.3667V15.3734V15.3801V15.3869V15.3936V15.4004V15.4072V15.414V15.4208V15.4276V15.4344V15.4413V15.4481V15.455V15.4619V15.4688V15.4757V15.4826V15.4896V15.4965V15.5035V15.5105V15.5175V15.5245V15.5315V15.5386V15.5456V15.5527V15.5598V15.5669V15.574C6.20537 16.3171 6.01366 17.0357 5.42004 17.5337C4.86221 18.0017 4.11395 18.1297 3.35537 18.1297C2.58936 18.1297 1.8373 18.003 1.2799 17.5315C0.687211 17.0301 0.505372 16.3087 0.505372 15.574V12.8075V12.78V12.78C0.505353 12.3883 0.505334 11.9879 0.540788 11.6312C0.577118 11.2656 0.657048 10.8598 0.872569 10.4931Z" fill="#7C8DB5"/>
</svg>
