<svg width="19" height="20" viewBox="0 0 19 20" fill="none" xmlns="http://www.w3.org/2000/svg">
<path fill-rule="evenodd" clip-rule="evenodd" d="M3.06966 2.12969C2.8685 2.12969 2.65677 2.217 2.4869 2.40418C2.31454 2.59409 2.20537 2.86787 2.20537 3.16858V16.3908C2.20537 16.6915 2.31454 16.9653 2.4869 17.1552C2.65678 17.3424 2.86851 17.4297 3.06966 17.4297H12.5054V9.27969V3.16858C12.5054 2.86787 12.3962 2.59409 12.2238 2.40418C12.054 2.217 11.8422 2.12969 11.6411 2.12969H3.06966ZM3.06966 19.1297H13.3554H15.3554C16.1112 19.1297 16.8361 18.8294 17.3706 18.2949C17.9051 17.7605 18.2054 17.0356 18.2054 16.2797V9.27969C18.2054 8.81025 17.8248 8.42969 17.3554 8.42969H14.2054V3.16858C14.2054 2.46735 13.9533 1.78024 13.4827 1.26168C13.0096 0.74039 12.3492 0.429688 11.6411 0.429688H3.06966C2.36149 0.429688 1.70115 0.74039 1.22805 1.26168C0.757425 1.78024 0.505371 2.46735 0.505371 3.16858V16.3908C0.505371 17.092 0.757425 17.7791 1.22805 18.2977C1.70115 18.819 2.36149 19.1297 3.06966 19.1297ZM14.2054 17.4297V10.1297H16.5054V16.2797C16.5054 16.5847 16.3842 16.8772 16.1685 17.0929C15.9529 17.3085 15.6604 17.4297 15.3554 17.4297H14.2054ZM5.35537 5.42969C4.88593 5.42969 4.50537 5.81025 4.50537 6.27969C4.50537 6.74913 4.88593 7.12969 5.35537 7.12969H9.35537C9.82481 7.12969 10.2054 6.74913 10.2054 6.27969C10.2054 5.81025 9.82481 5.42969 9.35537 5.42969H5.35537ZM4.50537 9.27969C4.50537 8.81025 4.88593 8.42969 5.35537 8.42969H9.35537C9.82481 8.42969 10.2054 8.81025 10.2054 9.27969C10.2054 9.74913 9.82481 10.1297 9.35537 10.1297H5.35537C4.88593 10.1297 4.50537 9.74913 4.50537 9.27969ZM5.35537 12.4297C4.88593 12.4297 4.50537 12.8102 4.50537 13.2797C4.50537 13.7491 4.88593 14.1297 5.35537 14.1297H8.35537C8.82481 14.1297 9.20537 13.7491 9.20537 13.2797C9.20537 12.8102 8.82481 12.4297 8.35537 12.4297H5.35537Z" fill="#7C8DB5"/>
</svg>
