<svg width="17" height="20" viewBox="0 0 17 20" fill="none" xmlns="http://www.w3.org/2000/svg">
<path fill-rule="evenodd" clip-rule="evenodd" d="M4.70537 5.77969C4.70537 4.13134 6.24265 2.62969 8.35537 2.62969C10.4681 2.62969 12.0054 4.13134 12.0054 5.77969C12.0054 7.42803 10.4681 8.92969 8.35537 8.92969C6.24265 8.92969 4.70537 7.42803 4.70537 5.77969ZM8.35537 0.929688C5.49753 0.929688 3.00537 3.00975 3.00537 5.77969C3.00537 8.54962 5.49753 10.6297 8.35537 10.6297C11.2132 10.6297 13.7054 8.54962 13.7054 5.77969C13.7054 3.00975 11.2132 0.929688 8.35537 0.929688ZM1.70537 16.2797C1.70537 15.7096 2.19399 15.0425 3.53088 14.4757C4.80517 13.9355 6.56081 13.6297 8.35537 13.6297C10.1307 13.6297 11.8851 13.987 13.1664 14.5564C13.808 14.8416 14.2909 15.1622 14.6014 15.4816C14.9082 15.7972 15.0054 16.0646 15.0054 16.2797C15.0054 16.3291 14.9885 16.4577 14.7429 16.6618C14.4899 16.8721 14.0666 17.095 13.4506 17.2946C12.2257 17.6913 10.4473 17.9297 8.35537 17.9297C6.26347 17.9297 4.48502 17.6913 3.26016 17.2946C2.6441 17.095 2.22087 16.8721 1.96783 16.6618C1.72229 16.4577 1.70537 16.3291 1.70537 16.2797ZM8.35537 11.9297C6.39993 11.9297 4.40557 12.2585 2.86736 12.9106C1.39175 13.5361 0.00537109 14.619 0.00537109 16.2797C0.00537109 16.995 0.390239 17.5612 0.881306 17.9693C1.36487 18.3711 2.01307 18.6776 2.73629 18.9118C4.19001 19.3827 6.16156 19.6297 8.35537 19.6297C10.5492 19.6297 12.5207 19.3827 13.9744 18.9118C14.6977 18.6776 15.3459 18.3711 15.8294 17.9693C16.3205 17.5612 16.7054 16.995 16.7054 16.2797C16.7054 15.4948 16.3338 14.8247 15.8203 14.2965C15.3105 13.7722 14.6215 13.3428 13.8568 13.0029C12.3256 12.3224 10.3301 11.9297 8.35537 11.9297Z" fill="#7C8DB5"/>
</svg>
