<svg width="204" height="33" viewBox="0 0 204 33" fill="none" xmlns="http://www.w3.org/2000/svg">
<path d="M14.4881 32L8.32813 21.12H5.68813V32H0.0881252V4.08H10.5681C12.7281 4.08 14.5681 4.46667 16.0881 5.24C17.6081 5.98667 18.7415 7.01333 19.4881 8.32C20.2615 9.6 20.6481 11.04 20.6481 12.64C20.6481 14.48 20.1148 16.1467 19.0481 17.64C17.9815 19.1067 16.3948 20.12 14.2881 20.68L20.9681 32H14.4881ZM5.68813 16.92H10.3681C11.8881 16.92 13.0215 16.56 13.7681 15.84C14.5148 15.0933 14.8881 14.0667 14.8881 12.76C14.8881 11.48 14.5148 10.4933 13.7681 9.8C13.0215 9.08 11.8881 8.72 10.3681 8.72H5.68813V16.92ZM28.5531 7.2C27.5665 7.2 26.7398 6.89333 26.0731 6.28C25.4331 5.64 25.1131 4.85333 25.1131 3.92C25.1131 2.98667 25.4331 2.21333 26.0731 1.6C26.7398 0.959998 27.5665 0.639998 28.5531 0.639998C29.5398 0.639998 30.3531 0.959998 30.9931 1.6C31.6598 2.21333 31.9931 2.98667 31.9931 3.92C31.9931 4.85333 31.6598 5.64 30.9931 6.28C30.3531 6.89333 29.5398 7.2 28.5531 7.2ZM31.3131 9.84V32H25.7131V9.84H31.3131ZM35.4059 20.84C35.4059 18.6 35.8459 16.6133 36.7259 14.88C37.6326 13.1467 38.8593 11.8133 40.4059 10.88C41.9526 9.94667 43.6726 9.48 45.5659 9.48C47.0059 9.48 48.3793 9.8 49.6859 10.44C50.9926 11.0533 52.0326 11.88 52.8059 12.92V2.4H58.4859V32H52.8059V28.72C52.1126 29.8133 51.1393 30.6933 49.8859 31.36C48.6326 32.0267 47.1793 32.36 45.5259 32.36C43.6593 32.36 41.9526 31.88 40.4059 30.92C38.8593 29.96 37.6326 28.6133 36.7259 26.88C35.8459 25.12 35.4059 23.1067 35.4059 20.84ZM52.8459 20.92C52.8459 19.56 52.5793 18.4 52.0459 17.44C51.5126 16.4533 50.7926 15.7067 49.8859 15.2C48.9793 14.6667 48.0059 14.4 46.9659 14.4C45.9259 14.4 44.9659 14.6533 44.0859 15.16C43.2059 15.6667 42.4859 16.4133 41.9259 17.4C41.3926 18.36 41.1259 19.5067 41.1259 20.84C41.1259 22.1733 41.3926 23.3467 41.9259 24.36C42.4859 25.3467 43.2059 26.1067 44.0859 26.64C44.9926 27.1733 45.9526 27.44 46.9659 27.44C48.0059 27.44 48.9793 27.1867 49.8859 26.68C50.7926 26.1467 51.5126 25.4 52.0459 24.44C52.5793 23.4533 52.8459 22.28 52.8459 20.92ZM84.5553 20.44C84.5553 21.24 84.502 21.96 84.3953 22.6H68.1953C68.3286 24.2 68.8886 25.4533 69.8753 26.36C70.862 27.2667 72.0753 27.72 73.5153 27.72C75.5953 27.72 77.0753 26.8267 77.9553 25.04H83.9953C83.3553 27.1733 82.1286 28.9333 80.3153 30.32C78.502 31.68 76.2753 32.36 73.6353 32.36C71.502 32.36 69.582 31.8933 67.8753 30.96C66.1953 30 64.8753 28.6533 63.9153 26.92C62.982 25.1867 62.5153 23.1867 62.5153 20.92C62.5153 18.6267 62.982 16.6133 63.9153 14.88C64.8486 13.1467 66.1553 11.8133 67.8353 10.88C69.5153 9.94667 71.4486 9.48 73.6353 9.48C75.742 9.48 77.622 9.93333 79.2753 10.84C80.9553 11.7467 82.2486 13.04 83.1553 14.72C84.0886 16.3733 84.5553 18.28 84.5553 20.44ZM78.7553 18.84C78.7286 17.4 78.2086 16.2533 77.1953 15.4C76.182 14.52 74.942 14.08 73.4753 14.08C72.0886 14.08 70.9153 14.5067 69.9553 15.36C69.022 16.1867 68.4486 17.3467 68.2353 18.84H78.7553Z" fill="black"/>
<path d="M98.2828 32.28C96.3361 32.28 94.5761 31.9467 93.0028 31.28C91.4561 30.6133 90.2295 29.6533 89.3228 28.4C88.4161 27.1467 87.9495 25.6667 87.9228 23.96H93.9228C94.0028 25.1067 94.4028 26.0133 95.1228 26.68C95.8695 27.3467 96.8828 27.68 98.1628 27.68C99.4695 27.68 100.496 27.3733 101.243 26.76C101.989 26.12 102.363 25.2933 102.363 24.28C102.363 23.4533 102.109 22.7733 101.603 22.24C101.096 21.7067 100.456 21.2933 99.6828 21C98.9361 20.68 97.8961 20.3333 96.5628 19.96C94.7495 19.4267 93.2695 18.9067 92.1228 18.4C91.0028 17.8667 90.0295 17.08 89.2028 16.04C88.4028 14.9733 88.0028 13.56 88.0028 11.8C88.0028 10.1467 88.4161 8.70667 89.2428 7.48C90.0695 6.25333 91.2295 5.32 92.7228 4.68C94.2161 4.01333 95.9228 3.68 97.8428 3.68C100.723 3.68 103.056 4.38667 104.843 5.8C106.656 7.18667 107.656 9.13333 107.843 11.64H101.683C101.629 10.68 101.216 9.89333 100.443 9.28C99.6961 8.64 98.6961 8.32 97.4428 8.32C96.3495 8.32 95.4695 8.6 94.8028 9.16C94.1628 9.72 93.8428 10.5333 93.8428 11.6C93.8428 12.3467 94.0828 12.9733 94.5628 13.48C95.0695 13.96 95.6828 14.36 96.4028 14.68C97.1495 14.9733 98.1895 15.32 99.5228 15.72C101.336 16.2533 102.816 16.7867 103.963 17.32C105.109 17.8533 106.096 18.6533 106.923 19.72C107.749 20.7867 108.163 22.1867 108.163 23.92C108.163 25.4133 107.776 26.8 107.003 28.08C106.229 29.36 105.096 30.3867 103.603 31.16C102.109 31.9067 100.336 32.28 98.2828 32.28ZM125.498 9.52C127.178 9.52 128.671 9.89333 129.978 10.64C131.284 11.36 132.298 12.44 133.018 13.88C133.764 15.2933 134.138 17 134.138 19V32H128.538V19.76C128.538 18 128.098 16.6533 127.218 15.72C126.338 14.76 125.138 14.28 123.618 14.28C122.071 14.28 120.844 14.76 119.938 15.72C119.058 16.6533 118.618 18 118.618 19.76V32H113.018V2.4H118.618V12.6C119.338 11.64 120.298 10.8933 121.498 10.36C122.698 9.8 124.031 9.52 125.498 9.52ZM138.023 20.84C138.023 18.6 138.463 16.6133 139.343 14.88C140.25 13.1467 141.463 11.8133 142.983 10.88C144.53 9.94667 146.25 9.48 148.143 9.48C149.796 9.48 151.236 9.81333 152.463 10.48C153.716 11.1467 154.716 11.9867 155.463 13V9.84H161.103V32H155.463V28.76C154.743 29.8 153.743 30.6667 152.463 31.36C151.21 32.0267 149.756 32.36 148.103 32.36C146.236 32.36 144.53 31.88 142.983 30.92C141.463 29.96 140.25 28.6133 139.343 26.88C138.463 25.12 138.023 23.1067 138.023 20.84ZM155.463 20.92C155.463 19.56 155.196 18.4 154.663 17.44C154.13 16.4533 153.41 15.7067 152.503 15.2C151.596 14.6667 150.623 14.4 149.583 14.4C148.543 14.4 147.583 14.6533 146.703 15.16C145.823 15.6667 145.103 16.4133 144.543 17.4C144.01 18.36 143.743 19.5067 143.743 20.84C143.743 22.1733 144.01 23.3467 144.543 24.36C145.103 25.3467 145.823 26.1067 146.703 26.64C147.61 27.1733 148.57 27.44 149.583 27.44C150.623 27.44 151.596 27.1867 152.503 26.68C153.41 26.1467 154.13 25.4 154.663 24.44C155.196 23.4533 155.463 22.28 155.463 20.92ZM172.173 13.28C172.893 12.1067 173.826 11.1867 174.973 10.52C176.146 9.85333 177.479 9.52 178.973 9.52V15.4H177.493C175.733 15.4 174.399 15.8133 173.493 16.64C172.613 17.4667 172.173 18.9067 172.173 20.96V32H166.573V9.84H172.173V13.28ZM203.344 20.44C203.344 21.24 203.291 21.96 203.184 22.6H186.984C187.118 24.2 187.678 25.4533 188.664 26.36C189.651 27.2667 190.864 27.72 192.304 27.72C194.384 27.72 195.864 26.8267 196.744 25.04H202.784C202.144 27.1733 200.918 28.9333 199.104 30.32C197.291 31.68 195.064 32.36 192.424 32.36C190.291 32.36 188.371 31.8933 186.664 30.96C184.984 30 183.664 28.6533 182.704 26.92C181.771 25.1867 181.304 23.1867 181.304 20.92C181.304 18.6267 181.771 16.6133 182.704 14.88C183.638 13.1467 184.944 11.8133 186.624 10.88C188.304 9.94667 190.238 9.48 192.424 9.48C194.531 9.48 196.411 9.93333 198.064 10.84C199.744 11.7467 201.038 13.04 201.944 14.72C202.878 16.3733 203.344 18.28 203.344 20.44ZM197.544 18.84C197.518 17.4 196.998 16.2533 195.984 15.4C194.971 14.52 193.731 14.08 192.264 14.08C190.878 14.08 189.704 14.5067 188.744 15.36C187.811 16.1867 187.238 17.3467 187.024 18.84H197.544Z" fill="#6D61F2"/>
</svg>
