<svg width="37" height="43" viewBox="0 0 37 43" fill="none" xmlns="http://www.w3.org/2000/svg">
<path d="M36.378 31.1556C35.704 33.2925 34.6412 35.4294 33.1896 37.5662C30.9603 40.9169 28.7396 42.5922 26.5276 42.5922C25.6809 42.5922 24.4712 42.3187 22.8986 41.7716C21.4124 41.2246 20.1077 40.9511 18.9844 40.9511C17.9302 40.9511 16.7033 41.2331 15.3035 41.7973C13.9037 42.3785 12.7631 42.6691 11.8818 42.6691C9.25504 42.6691 6.65422 40.4553 4.07931 36.0277C1.53897 31.5659 0.268799 27.2665 0.268799 23.1295C0.268799 19.2319 1.24519 16.0351 3.19797 13.5392C5.15075 11.0776 7.60469 9.84672 10.5598 9.84672C11.804 9.84672 13.3334 10.1031 15.1479 10.616C16.9452 11.1288 18.1376 11.3853 18.7252 11.3853C19.5028 11.3853 20.7384 11.0947 22.432 10.5134C24.1947 9.93219 25.6895 9.64158 26.9165 9.64158C28.9729 9.64158 30.8134 10.1972 32.4378 11.3083C33.3365 11.9238 34.2351 12.7785 35.1337 13.8726C33.7685 15.018 32.7835 16.0266 32.1786 16.8984C31.0553 18.5053 30.4937 20.2747 30.4937 22.2064C30.4937 24.3262 31.0899 26.2323 32.2823 27.9247C33.4747 29.6171 34.8399 30.6941 36.378 31.1556ZM26.6313 1.07698C26.6313 2.11978 26.3808 3.28224 25.8796 4.56436C25.3612 5.84649 24.5576 7.02604 23.4689 8.10303C22.5357 9.02616 21.6025 9.64158 20.6693 9.94929C20.0299 10.1373 19.1313 10.2826 17.9734 10.3852C18.0253 7.83805 18.6992 5.64135 19.9953 3.79509C21.2741 1.96592 23.4343 0.700895 26.4758 0C26.4931 0.051285 26.5147 0.145307 26.5406 0.282067C26.5665 0.418827 26.5881 0.51285 26.6054 0.564135C26.6054 0.632515 26.6097 0.71799 26.6184 0.82056C26.627 0.92313 26.6313 1.0086 26.6313 1.07698Z" fill="#DDDDDD"/>
</svg>
