<svg width="40" height="42" viewBox="0 0 40 42" fill="none" xmlns="http://www.w3.org/2000/svg">
<path d="M0.327148 38.8391V2.5411C0.327394 2.46234 0.351138 2.38542 0.395403 2.31996C0.439668 2.25451 0.502483 2.20343 0.575971 2.17315C0.64946 2.14287 0.730351 2.13472 0.8085 2.14974C0.886649 2.16475 0.958579 2.20226 1.01527 2.25755L20.1211 20.6892L1.01527 39.1227C0.958579 39.178 0.886649 39.2155 0.8085 39.2305C0.730351 39.2455 0.64946 39.2374 0.575971 39.2071C0.502483 39.1768 0.439668 39.1257 0.395403 39.0603C0.351138 38.9948 0.327394 38.9179 0.327148 38.8391ZM28.132 28.2628L4.17576 41.319L4.16082 41.3273C3.74814 41.549 3.35599 40.9967 3.69399 40.6753L22.473 22.9123L28.132 28.2628ZM3.69585 0.703101C3.356 0.381683 3.74814 -0.170638 4.16269 0.0510297L4.17763 0.0593447L28.132 13.1156L22.473 18.4679L3.69585 0.703101ZM37.8031 22.9982L31.1133 26.6428L24.8231 20.6892L31.1133 14.7383L37.8031 18.3802C39.6228 19.3749 39.6228 22.0035 37.8031 22.9982Z" fill="white"/>
</svg>
