<svg width="24" height="14" viewBox="0 0 24 14" fill="none" xmlns="http://www.w3.org/2000/svg">
<path d="M2.69181 0L20.5793 0C22.2668 0 23.1173 0.6785 23.1173 2.0585V11.7415C23.1173 13.11 22.2668 13.8 20.5793 13.8H2.69181C1.00431 13.8 0.153809 13.11 0.153809 11.7415L0.153809 2.0585C0.153809 0.6785 1.00431 0 2.69181 0ZM11.6288 9.89L20.7278 3.5305C21.0518 3.3005 21.3083 2.7715 20.9033 2.3C20.5118 1.8285 19.7963 1.817 19.3238 2.1045L11.6288 6.5435L3.94731 2.1045C3.47481 1.817 2.75931 1.8285 2.36781 2.3C1.96281 2.7715 2.21931 3.3005 2.54331 3.5305L11.6288 9.89Z" fill="#6D61F2"/>
</svg>
