<svg width="33" height="39" viewBox="0 0 33 39" fill="none" xmlns="http://www.w3.org/2000/svg">
<g clip-path="url(#clip0_179_646)">
<rect width="32.4507" height="38.25" transform="translate(0.436523 0.374512)" fill="white"/>
<path d="M16.6692 10.9081C12.0623 10.9081 8.34645 14.7406 8.34645 19.4919C8.34645 24.2433 12.0623 28.0758 16.6692 28.0758C21.276 28.0758 24.9919 24.2433 24.9919 19.4919C24.9919 14.7406 21.276 10.9081 16.6692 10.9081ZM16.6692 25.0725C13.6921 25.0725 11.2583 22.5698 11.2583 19.4919C11.2583 16.414 13.6849 13.9113 16.6692 13.9113C19.6535 13.9113 22.0801 16.414 22.0801 19.4919C22.0801 22.5698 19.6462 25.0725 16.6692 25.0725ZM27.2736 10.557C27.2736 11.6701 26.4044 12.5591 25.3324 12.5591C24.2531 12.5591 23.3911 11.6626 23.3911 10.557C23.3911 9.4513 24.2603 8.55482 25.3324 8.55482C26.4044 8.55482 27.2736 9.4513 27.2736 10.557ZM32.7859 12.589C32.6628 9.90701 32.0688 7.53133 30.1638 5.57401C28.266 3.61669 25.9625 3.00409 23.3621 2.86962C20.6821 2.71273 12.6491 2.71273 9.96898 2.86962C7.37582 2.99662 5.0724 3.60922 3.16737 5.56654C1.26234 7.52386 0.675619 9.89954 0.545237 12.5815C0.393124 15.3457 0.393124 23.6307 0.545237 26.3948C0.668376 29.0768 1.26234 31.4525 3.16737 33.4098C5.0724 35.3672 7.36858 35.9797 9.96898 36.1142C12.6491 36.2711 20.6821 36.2711 23.3621 36.1142C25.9625 35.9872 28.266 35.3746 30.1638 33.4098C32.0615 31.4525 32.6555 29.0768 32.7859 26.3948C32.938 23.6307 32.938 15.3532 32.7859 12.589ZM29.3235 29.3607C28.7585 30.825 27.6648 31.953 26.2378 32.5432C24.101 33.4173 19.0306 33.2156 16.6692 33.2156C14.3078 33.2156 9.23015 33.4098 7.10057 32.5432C5.68085 31.9605 4.58709 30.8324 4.01486 29.3607C3.16737 27.1569 3.36294 21.9274 3.36294 19.4919C3.36294 17.0565 3.17461 11.8195 4.01486 9.62313C4.57985 8.15887 5.67361 7.0308 7.10057 6.44061C9.23739 5.56654 14.3078 5.76825 16.6692 5.76825C19.0306 5.76825 24.1082 5.57401 26.2378 6.44061C27.6575 7.02332 28.7513 8.1514 29.3235 9.62313C30.171 11.827 29.9754 17.0565 29.9754 19.4919C29.9754 21.9274 30.171 27.1643 29.3235 29.3607Z" fill="black"/>
</g>
<defs>
<clipPath id="clip0_179_646">
<rect width="32.4507" height="38.25" fill="white" transform="translate(0.436523 0.374512)"/>
</clipPath>
</defs>
</svg>
