<svg width="33" height="33" viewBox="0 0 33 33" fill="none" xmlns="http://www.w3.org/2000/svg">
<g clip-path="url(#clip0_179_650)">
<rect width="32.4507" height="31.875" transform="translate(0.337402 0.499512)" fill="white"/>
<path d="M7.70512 32.3745V10.8685H0.747876L0.747876 32.3745H7.70512ZM4.2274 7.93047C6.65351 7.93047 8.16365 6.27905 8.16365 4.21534C8.11844 2.10509 6.6536 0.499512 4.27344 0.499512C1.89364 0.499512 0.337402 2.10512 0.337402 4.21534C0.337402 6.27915 1.84717 7.93047 4.18198 7.93047H4.22718H4.2274ZM11.5559 32.3745H18.5132V20.3645C18.5132 19.7218 18.5584 19.0797 18.7421 18.6202C19.245 17.336 20.3898 16.0059 22.3117 16.0059C24.8292 16.0059 25.8364 17.9781 25.8364 20.8691V32.3744H32.7932V20.043C32.7932 13.4372 29.3608 10.3636 24.7834 10.3636C21.0302 10.3636 19.3824 12.5191 18.4669 13.9871H18.5133V10.8681H11.5561C11.6474 12.8861 11.5561 32.3741 11.5561 32.3741L11.5559 32.3745Z" fill="black"/>
</g>
<defs>
<clipPath id="clip0_179_650">
<rect width="32.4507" height="31.875" fill="white" transform="translate(0.337402 0.499512)"/>
</clipPath>
</defs>
</svg>
