<svg width="22" height="17" viewBox="0 0 22 17" fill="none" xmlns="http://www.w3.org/2000/svg">
<path d="M1.02556 2.68617L3.86896 0.49102C4.06954 0.335345 4.30794 0.211827 4.57048 0.127563C4.83301 0.0432984 5.11451 -5.26497e-05 5.39879 4.79869e-08C5.97815 4.79869e-08 6.5228 0.175364 6.93129 0.49102L9.99096 2.85534C10.1924 3.01033 10.3523 3.19456 10.4613 3.39743C10.5704 3.6003 10.6265 3.81782 10.6264 4.0375C10.6264 4.48519 10.3994 4.90607 9.99096 5.22172L7.75361 6.95061C8.27732 7.84261 9.00545 8.65409 9.90285 9.34587C10.798 10.041 11.848 10.6057 13.0026 11.0129L15.2399 9.28398C15.4405 9.12831 15.6789 9.00479 15.9414 8.92053C16.204 8.83626 16.4855 8.79291 16.7697 8.79296C17.3491 8.79296 17.8937 8.96833 18.3022 9.28398L21.3646 11.6462C21.5663 11.8015 21.7263 11.9861 21.8353 12.1893C21.9444 12.3926 22.0003 12.6104 22 12.8305C22 13.2782 21.7731 13.699 21.3646 14.0147L18.5265 16.2078C17.8751 16.7132 16.9753 17 16.0515 17C15.8566 17 15.6698 16.9876 15.4855 16.9629C11.8866 16.5049 8.31695 15.0256 5.43617 12.8016C2.55806 10.5796 0.646436 7.8233 0.0457166 5.03398C-0.135834 4.18192 0.229936 3.3051 1.02556 2.68617Z" fill="#6D61F2"/>
</svg>
