<svg width="37" height="31" viewBox="0 0 37 31" fill="none" xmlns="http://www.w3.org/2000/svg">
<g clip-path="url(#clip0_179_654)">
<rect width="36.5071" height="29.75" transform="translate(0.183105 0.624512)" fill="white"/>
<path d="M36.6902 4.24687C35.3231 4.85137 33.8731 5.24817 32.3883 5.42406C33.9349 4.49882 35.1224 3.03367 35.6815 1.28796C34.2113 2.1588 32.6028 2.77236 30.9255 3.10214C29.5592 1.64923 27.6128 0.741211 25.4584 0.741211C21.322 0.741211 17.9683 4.08858 17.9683 8.21714C17.9683 8.80317 18.0346 9.37369 18.1623 9.921C11.9375 9.60912 6.41869 6.63285 2.72448 2.10971C2.0799 3.21388 1.71056 4.49825 1.71056 5.86817C1.71056 8.46197 3.03294 10.7502 5.04254 12.0909C3.85314 12.0537 2.6899 11.7331 1.64995 11.1557C1.64952 11.187 1.64952 11.2183 1.64952 11.2498C1.64952 14.872 4.23126 17.8937 7.6575 18.5805C6.55457 18.8799 5.39767 18.9237 4.27518 18.7086C5.22821 21.6788 7.99434 23.8401 11.2717 23.9006C8.70836 25.9057 5.47877 27.101 1.96981 27.101C1.36516 27.101 0.769073 27.0655 0.183105 26.9965C3.49769 29.1177 7.43461 30.3554 11.6643 30.3554C25.441 30.3554 32.9744 18.9634 32.9744 9.08416C32.9744 8.7599 32.9673 8.43749 32.9528 8.11693C34.4191 7.05886 35.6847 5.74834 36.6902 4.24687Z" fill="black"/>
</g>
<defs>
<clipPath id="clip0_179_654">
<rect width="36.5071" height="29.75" fill="white" transform="translate(0.183105 0.624512)"/>
</clipPath>
</defs>
</svg>
